<mxfile host="app.diagrams.net" modified="2021-03-19T12:44:21.892Z" agent="5.0 (Windows)" etag="YTd6oxKbMftd7dDa0qDo" version="14.4.9" type="github">
  <diagram id="7-wcFjYl-tDAyA9twi-3" name="Page-1">
    <mxGraphModel dx="1422" dy="865" grid="1" gridSize="10" guides="1" tooltips="1" connect="1" arrows="1" fold="1" page="1" pageScale="1" pageWidth="850" pageHeight="1100" math="0" shadow="0">
      <root>
        <mxCell id="0" />
        <mxCell id="1" parent="0" />
      </root>
    </mxGraphModel>
  </diagram>
</mxfile>
